{"title":"Rick Ross ft Style P - Blowin Money Fast [KingPinVideos]","uid":5688274,"size":92409095,"categoryP":"other","categoryS":"other","magnet":"?xt=urn:btih:226d2280038aa505fcd81a4488da492d68ea9fea&amp;dn=Rick+Ross+ft+Style+P+-+Blowin+Money+Fast+%5BKingPinVideos%5D&amp;tr=udp%3A%2F%2Ftracker.openbittorrent.com%3A80&amp;tr=udp%3A%2F%2Fopen.demonii.com%3A1337&amp;tr=udp%3A%2F%2Ftracker.coppersurfer.tk%3A6969&amp;tr=udp%3A%2F%2Fexodus.desync.com%3A6969","seeders":0,"leechers":1,"uploader":null,"files":4,"time":1278979601,"description":"[img]http://img517.imageshack.us/img517/7209/moneyfast01mpgsnapshot0.jpg[/img]\n\n[img]http://img203.imageshack.us/img203/7209/moneyfast01mpgsnapshot0.jpg[/img]\n\n[code]General\nComplete name                    : Rick Ross ft Style P - Blowin' Money Fast [KingPinVideos].mpg\nFormat                           : MPEG-PS\nFile size                        : 88.0 MiB\nDuration                         : 4mn 18s\nOverall bit rate                 : 2 857 Kbps\nWriting library                  : encoded by TMPGEnc 4.0 XPress Version. 4.7.4.299\n\nVideo\nID                               : 224 (0xE0)\nFormat                           : MPEG Video\nFormat version                   : Version 1\nFormat settings, BVOP            : Yes\nFormat settings, Matrix          : Default\nDuration                         : 4mn 18s\nBit rate mode                    : Variable\nBit rate                         : 2 616 Kbps\nNominal bit rate                 : 2 700 Kbps\nWidth                            : 384 pixels\nHeight                           : 208 pixels\nDisplay aspect ratio             : 16:9\nFrame rate                       : 29.970 fps\nResolution                       : 8 bits\nScan type                        : Progressive\nBits/(Pixel*Frame)               : 1.093\nStream size                      : 80.5 MiB (92%)\nWriting library                  : TMPGEnc XPress 4.7.4.299\n\nAudio\nID                               : 192 (0xC0)\nFormat                           : MPEG Audio\nFormat version                   : Version 1\nFormat profile                   : Layer 2\nDuration                         : 4mn 18s\nBit rate mode                    : Constant\nBit rate                         : 128 Kbps\nChannel(s)                       : 2 channels\nSampling rate                    : 48.0 KHz\nStream size                      : 3.94 MiB (4%)\n[/code]","torrent":{"xt":"urn:btih:226d2280038aa505fcd81a4488da492d68ea9fea","amp;dn":"Rick+Ross+ft+Style+P+-+Blowin+Money+Fast+%5BKingPinVideos%5D","amp;tr":["udp%3A%2F%2Ftracker.openbittorrent.com%3A80","udp%3A%2F%2Fopen.demonii.com%3A1337","udp%3A%2F%2Ftracker.coppersurfer.tk%3A6969","udp%3A%2F%2Fexodus.desync.com%3A6969"],"infoHash":"226d2280038aa505fcd81a4488da492d68ea9fea","infoHashBuffer":{"type":"Buffer","data":[34,109,34,128,3,138,165,5,252,216,26,68,136,218,73,45,104,234,159,234]},"announce":[],"urlList":[]}}